HIERARCHY
ROOT hip
{
	OFFSET 0.000000 0.000000 0.000000 
	CHANNELS 6 Xposition Yposition Zposition Xrotation Zrotation Yrotation
	JOINT abdomen
	{
		OFFSET 0.000000 3.402643 0.000000 
		CHANNELS 3 Xrotation Zrotation Yrotation
		JOINT chest
		{
			OFFSET 0.000000 8.438565 -0.680529 
			CHANNELS 3 Xrotation Zrotation Yrotation
			JOINT neck
			{
				OFFSET 0.000000 10.207942 -0.272212 
				CHANNELS 3 Xrotation Zrotation Yrotation
				JOINT head
				{
					OFFSET 0.000000 3.130431 0.000000 
					CHANNELS 3 Xrotation Zrotation Yrotation
					End Site
					{
						OFFSET 0.000000 3.130435 0.000000 
					}
				}
			}
			JOINT lCollar
			{
				OFFSET 3.470700 6.669187 -0.816635 
				CHANNELS 3 Zrotation Yrotation Xrotation
				JOINT lShldr
				{
					OFFSET 3.198488 0.000000 0.000000 
					CHANNELS 3 Zrotation Yrotation Xrotation
					JOINT lForeArm
					{
						OFFSET 10.139888 0.000000 0.000000 
						CHANNELS 3 Yrotation Zrotation Xrotation
						JOINT lHand
						{
							OFFSET 8.370511 0.000000 0.000000 
							CHANNELS 3 Zrotation Yrotation Xrotation
							End Site
							{
								OFFSET 4.083176 0.000000 0.000000 
							}
						}
					}
				}
			}
			JOINT rCollar
			{
				OFFSET -3.470700 6.669187 -0.816635 
				CHANNELS 3 Zrotation Yrotation Xrotation
				JOINT rShldr
				{
					OFFSET -3.198488 0.000000 0.000000 
					CHANNELS 3 Zrotation Yrotation Xrotation
					JOINT rForeArm
					{
						OFFSET -10.139888 0.000000 0.000000 
						CHANNELS 3 Yrotation Zrotation Xrotation
						JOINT rHand
						{
							OFFSET -8.370511 0.000000 0.000000 
							CHANNELS 3 Zrotation Yrotation Xrotation
							End Site
							{
								OFFSET -4.083176 0.000000 0.000000 
							}
						}
					}
				}
			}
		}
	}
	JOINT lThigh
	{
		OFFSET 5.308129 -1.633274 1.361059 
		CHANNELS 3 Xrotation Zrotation Yrotation
		JOINT lShin
		{
			OFFSET -2.041588 -20.007561 0.000000 
			CHANNELS 3 Xrotation Zrotation Yrotation
			JOINT lFoot
			{
				OFFSET 0.000000 -19.190928 -1.224953 
				CHANNELS 3 Xrotation Yrotation Zrotation
				End Site
				{
					OFFSET 0.000000 -2.449906 4.627600 
				}
			}
		}
	}
	JOINT rThigh
	{
		OFFSET -5.308129 -1.633274 1.361059 
		CHANNELS 3 Xrotation Zrotation Yrotation
		JOINT rShin
		{
			OFFSET 2.041588 -20.007561 0.000000 
			CHANNELS 3 Xrotation Zrotation Yrotation
			JOINT rFoot
			{
				OFFSET 0.000000 -19.190928 -1.224953 
				CHANNELS 3 Xrotation Yrotation Zrotation
				End Site
				{
					OFFSET 0.000000 -2.449906 4.627600 
				}
			}
		}
	}
}
MOTION
Frames: 11
Frame Time: 0.016667
-0.608450 84.967789 60.825642 6.622929 -7.060236 0.540238 49.144432 8.235145 2.686913 -0.574186 3.288260 -3.362796 -20.779041 -2.147953 0.621373 -6.101149 -4.094788 5.149373 -4.397729 -10.572256 0.586384 -32.120426 -16.662720 -1.845238 -68.228271 -3.425719 0.759240 -17.009439 -20.854055 22.071102 7.957664 10.953956 1.086447 49.439819 31.108189 20.126511 47.331997 -2.267362 -3.556987 11.883574 -2.896645 6.524023 -59.779770 17.839359 7.716499 92.633369 0.858634 -9.403407 -22.316460 1.225462 -3.345639 -53.547626 -7.126873 -12.092298 71.695183 5.371827 19.182760 -24.009596 -14.067561 -6.807025 
-0.809608 85.320961 61.457901 5.819585 -6.541728 1.120495 48.142033 8.162824 1.938604 -0.528403 3.248608 -3.754123 -20.376923 -2.054328 0.587478 -5.614148 -4.134755 4.983082 -5.419856 -10.580263 0.722543 -33.423744 -15.326900 -1.430078 -66.842529 -4.620841 1.320448 -17.066933 -21.056719 22.152107 9.050072 10.288323 1.137146 49.996414 29.821863 20.293175 47.006996 -1.359634 -2.754531 12.024849 -2.842613 6.242043 -57.540462 17.886507 8.168308 91.845413 0.730831 -9.435136 -22.613808 0.627063 -3.630172 -51.320869 -7.009689 -11.525381 71.140884 5.595864 19.248825 -25.023235 -14.511565 -7.941414 
-0.997414 85.750931 62.031754 5.103980 -6.150018 1.581000 47.231800 8.098815 1.326717 -0.449756 3.199289 -4.047318 -19.984470 -1.941391 0.550658 -5.137874 -4.193375 4.944827 -6.362270 -10.567575 0.848505 -34.714283 -13.894973 -1.282109 -65.156059 -5.000000 1.973168 -17.055954 -21.342110 22.189810 9.810880 9.757617 1.146273 50.579823 28.612146 20.171957 46.453335 -0.574489 -2.064132 12.172980 -2.899831 5.965877 -55.370872 18.027306 8.477570 90.755249 0.536271 -9.511073 -22.462322 0.026608 -3.981395 -49.144794 -6.805430 -10.984740 70.193497 5.858943 18.915718 -25.845057 -14.788406 -8.089580 
-1.185215 86.180923 62.605587 4.397013 -5.748396 2.021161 46.333744 8.025187 0.701811 -0.360967 3.159728 -4.330223 -19.591827 -1.829917 0.504182 -4.650190 -4.242332 4.896131 -7.294694 -10.553035 0.971172 -36.001526 -12.465710 -1.161994 -63.461895 -5.000000 2.690804 -17.066244 -21.627094 22.253000 10.571750 9.246984 1.145698 51.162777 27.382837 20.050886 45.880032 0.196986 -1.358964 12.322841 -2.946212 5.691598 -53.194721 18.149841 8.772204 89.644554 0.361043 -9.589915 -22.269712 -0.596275 -4.366014 -46.967743 -6.619598 -10.426477 69.265129 6.113835 18.555216 -26.624331 -15.058795 -8.232521 
-1.356322 86.679321 63.139378 3.770177 -5.366436 2.392455 45.468216 7.903096 0.180546 -0.251855 3.129952 -4.594169 -19.141804 -1.773447 0.485768 -4.185915 -4.320361 4.866911 -8.125547 -10.520415 1.070338 -37.263374 -10.993047 -1.332654 -61.520851 -5.000000 3.582651 -16.874252 -21.928005 22.221661 11.030425 8.880363 1.131416 51.711681 26.162758 19.665827 45.229240 0.906244 -0.687494 12.434538 -2.992828 5.397480 -51.001358 18.268919 9.115858 88.220856 0.146929 -9.707522 -21.647503 -1.153860 -4.773690 -44.723022 -6.464171 -9.923862 67.806335 6.407202 18.040579 -27.018293 -15.115470 -7.907913 
-1.523249 87.194832 63.663147 3.161092 -4.974824 2.734662 44.625179 7.774254 -0.334690 -0.142604 3.109938 -4.838596 -18.682199 -1.736289 0.470274 -3.741091 -4.398394 4.838437 -8.927728 -10.466372 1.169671 -38.523899 -9.534654 -1.595960 -59.512264 -5.000000 4.580383 -16.652372 -22.228315 22.188164 11.420159 8.562099 1.101191 52.271557 24.932476 19.202845 44.560497 1.579450 -0.020831 12.526664 -3.046129 5.102605 -48.807182 18.407459 9.453877 86.679672 -0.127511 -9.882087 -20.911423 -1.687540 -5.120608 -42.464523 -6.345929 -9.390811 66.237595 6.738464 17.431396 -27.289085 -15.167895 -7.444059 
-1.678489 87.725349 64.174408 2.559815 -4.583425 3.036383 43.817730 7.602675 -0.841091 -0.011071 3.090065 -5.034266 -18.183115 -1.681281 0.441919 -3.256304 -4.466703 4.809225 -9.601066 -10.423461 1.252928 -39.805294 -8.071119 -1.994784 -57.423641 -5.000000 5.691709 -16.443508 -22.498817 22.175798 11.703028 8.301419 1.076507 52.795139 23.711964 18.587198 43.871761 2.284304 0.710591 12.651029 -3.067345 4.833224 -46.598866 18.543377 9.872471 85.099197 -0.390570 -10.033919 -19.978231 -2.203380 -5.539824 -40.150524 -6.248425 -8.883157 64.476166 7.080863 16.841640 -27.389482 -15.105103 -6.901408 
-1.816201 88.278374 64.666885 1.976577 -4.182573 3.289596 43.036617 7.371628 -1.346110 0.154705 3.050915 -5.141619 -17.654713 -1.616618 0.412400 -2.742011 -4.505628 4.809222 -10.096121 -10.393313 1.312666 -41.110229 -6.615222 -2.570060 -55.219643 -5.000000 6.941808 -16.257919 -22.724384 22.203482 11.849458 8.136994 1.058940 53.273804 22.481691 17.736427 43.160046 3.038286 1.530722 12.816095 -3.053988 4.620236 -44.387165 18.676889 10.342278 83.362778 -0.682972 -10.179528 -18.674957 -2.662255 -5.941113 -37.769287 -6.200093 -8.346137 62.450516 7.509768 16.178566 -27.185913 -14.947514 -6.261753 
-1.953906 88.831421 65.159355 1.388408 -3.781921 3.522775 42.260941 7.139797 -1.838167 0.310689 3.021546 -5.239221 -17.126299 -1.542298 0.381419 -2.217177 -4.544618 4.800254 -10.582929 -10.361117 1.381935 -42.426456 -5.175053 -3.177819 -52.995472 -5.000000 8.278625 -16.082380 -22.958387 22.226093 11.996438 7.972563 1.051127 53.772137 21.261061 16.875719 42.437031 3.772350 2.369648 12.971246 -3.046008 4.396152 -42.160027 18.803139 10.869658 81.625237 -0.955991 -10.316099 -17.397558 -3.070009 -6.321922 -35.379063 -6.132411 -7.810290 60.409882 7.890470 15.510052 -27.027691 -14.852145 -5.652151 
-2.064497 89.378174 65.622635 0.894402 -3.255016 3.677588 41.449486 6.707030 -2.331362 0.486348 2.982399 -5.327045 -16.451838 -1.485827 0.363008 -1.747819 -4.593667 4.741066 -10.738106 -10.311176 1.383585 -43.775421 -3.749665 -4.039781 -50.836666 -5.000000 9.739346 -15.984041 -22.969128 22.457129 11.869640 7.961479 1.037916 54.236076 20.079622 15.779844 41.696465 4.557460 3.307944 12.944202 -3.111626 4.171472 -40.138992 18.881111 11.478823 79.885162 -1.327173 -10.577867 -15.246087 -3.359923 -6.862735 -33.040264 -6.150992 -7.124881 58.069981 8.328731 14.817976 -26.621391 -14.714913 -5.202988 
-2.175079 89.924911 66.085884 0.413473 -2.728301 3.822392 40.654964 6.273733 -2.810032 0.661452 2.953001 -5.414872 -15.786874 -1.421162 0.333484 -1.277568 -4.642783 4.672922 -10.885086 -10.259675 1.393174 -45.143940 -2.352080 -4.924264 -48.657806 -5.000000 11.279491 -15.900081 -22.986362 22.697023 11.762206 7.950619 1.023734 54.729118 18.898102 14.687098 40.942589 5.000000 4.266649 12.916638 -3.189169 3.954166 -38.120770 18.932301 12.059722 78.156120 -1.717182 -10.773039 -13.119372 -3.654216 -7.387521 -30.711601 -6.220667 -6.487471 55.750549 8.730307 14.150861 -26.193556 -14.554781 -4.792695 
